<?xml version="1.0" standalone="no"?>
<!DOCTYPE svg PUBLIC "-//W3C//DTD SVG 20010904//EN"
 "http://www.w3.org/TR/2001/REC-SVG-20010904/DTD/svg10.dtd">
<svg version="1.0" xmlns="http://www.w3.org/2000/svg"
 width="150.000000pt" height="150.000000pt" viewBox="0 0 150.000000 150.000000"
 preserveAspectRatio="xMidYMid meet">

<g transform="translate(0.000000,150.000000) scale(0.100000,-0.100000)"
fill="#000000" stroke="none">
<path d="M1 1153 c1 -192 3 -337 6 -323 36 240 153 426 345 551 l63 40 3 -25
c4 -30 45 -66 76 -66 12 0 33 8 46 17 14 10 32 16 41 15 10 -2 19 6 22 19 7
26 1 39 -16 39 -15 0 -41 39 -32 48 3 3 38 11 78 18 63 10 29 12 -280 13
l-353 1 1 -347z"/>
<path d="M738 1489 c-2 -7 -17 -12 -33 -13 -23 -1 -31 -6 -33 -24 -3 -17 2
-25 16 -29 11 -3 22 -13 25 -24 3 -10 19 -27 36 -36 17 -10 31 -22 31 -27 0
-5 -3 -6 -7 -3 -8 9 -32 -24 -32 -43 0 -11 3 -10 8 3 4 10 10 18 14 17 4 0 29
21 55 47 46 47 82 59 82 27 0 -16 16 -19 25 -4 3 6 1 10 -5 10 -8 0 -10 9 -6
25 6 25 -16 47 -40 38 -6 -2 -19 6 -30 18 l-19 22 47 -6 c110 -15 339 -124
354 -169 3 -10 11 -18 19 -18 24 0 112 -108 158 -192 54 -100 76 -166 87 -256
5 -43 8 60 9 291 l1 357 -379 0 c-276 0 -380 -3 -383 -11z m49 -20 c14 -14 6
-39 -12 -39 -18 0 -28 17 -21 35 6 18 18 19 33 4z"/>
<path d="M939 1419 c-9 -17 -8 -20 2 -14 9 6 11 3 6 -9 -4 -11 0 -24 10 -34
16 -16 16 -16 10 1 -8 21 9 23 21 1 6 -12 8 -6 7 20 -1 20 -6 40 -10 44 -5 4
-5 2 -1 -5 4 -8 -1 -11 -14 -10 -12 1 -19 6 -16 14 8 21 -2 15 -15 -8z m22
-32 c-10 -9 -11 -8 -5 6 3 10 9 15 12 12 3 -3 0 -11 -7 -18z"/>
<path d="M1000 1436 c0 -2 8 -10 18 -17 15 -13 16 -12 3 4 -13 16 -21 21 -21
13z"/>
<path d="M1000 1391 c0 -6 4 -13 10 -16 6 -3 7 1 4 9 -7 18 -14 21 -14 7z"/>
<path d="M1030 1391 c0 -17 18 -21 24 -6 3 9 0 15 -9 15 -8 0 -15 -4 -15 -9z"/>
<path d="M382 1351 c4 -13 18 -16 19 -4 0 4 -5 9 -11 12 -7 2 -11 -2 -8 -8z"/>
<path d="M874 1335 c-4 -9 -2 -21 4 -27 16 -16 47 -5 47 17 0 26 -42 34 -51
10z"/>
<path d="M1106 1341 c-4 -5 -2 -12 3 -15 5 -4 12 -2 15 3 4 5 2 12 -3 15 -5 4
-12 2 -15 -3z"/>
<path d="M1150 1330 c0 -5 5 -10 11 -10 5 0 7 5 4 10 -3 6 -8 10 -11 10 -2 0
-4 -4 -4 -10z"/>
<path d="M615 1320 c-4 -6 -15 -8 -25 -5 -28 9 -34 -14 -6 -24 13 -6 30 -18
36 -28 10 -15 11 -15 6 -1 -3 9 0 19 7 21 7 2 4 3 -5 2 -21 -4 -24 15 -6 33 7
7 9 12 6 12 -4 0 -10 -5 -13 -10z"/>
<path d="M636 1315 c-3 -8 5 -15 20 -18 29 -5 29 -6 5 15 -15 13 -21 14 -25 3z"/>
<path d="M803 1305 c0 -7 6 -11 14 -8 7 3 13 6 13 8 0 2 -6 5 -13 8 -8 3 -14
-1 -14 -8z"/>
<path d="M1200 1301 c-7 -15 -7 -19 5 -17 19 3 32 16 16 16 -7 0 -9 5 -6 10 3
6 4 10 1 10 -3 0 -10 -9 -16 -19z"/>
<path d="M1022 1301 c2 -7 7 -12 11 -12 12 1 9 15 -3 20 -7 2 -11 -2 -8 -8z"/>
<path d="M1055 1280 c-24 -47 -4 -93 46 -105 31 -7 46 3 54 38 6 23 4 27 -15
27 -16 0 -21 4 -16 16 6 15 4 15 -10 3 -16 -13 -16 -12 -5 9 7 13 10 26 7 30
-3 3 -6 2 -6 -2 0 -4 -9 -2 -20 4 -16 9 -22 6 -35 -20z"/>
<path d="M760 1280 c-1 -8 -2 -20 -1 -27 1 -9 -6 -8 -25 2 -15 8 -31 12 -36 9
-5 -3 -15 -1 -22 5 -10 9 -15 8 -19 -3 -4 -11 -1 -13 11 -9 14 6 15 4 5 -8 -6
-8 -13 -27 -15 -43 -2 -23 -10 -32 -35 -40 -17 -6 -35 -15 -39 -19 -5 -4 0 -5
10 -1 15 6 18 4 12 -7 -4 -8 -1 -6 7 4 14 17 53 25 43 8 -11 -16 27 -22 44 -6
9 8 25 15 36 15 14 0 20 8 22 27 1 14 3 28 5 29 7 7 46 -9 51 -21 3 -9 0 -12
-8 -9 -7 3 -16 -1 -19 -9 -4 -10 0 -14 11 -12 9 2 17 4 17 5 0 1 19 4 42 6 28
2 42 0 40 -7 -1 -7 4 -14 11 -16 9 -4 12 4 9 29 -3 18 -8 40 -11 49 -7 16 18
34 33 24 4 -2 8 2 8 10 0 8 -4 12 -8 9 -5 -3 -18 0 -29 6 -30 16 -60 3 -75
-33 -9 -20 -14 -25 -15 -14 0 10 -6 17 -12 16 -28 -3 -37 2 -41 24 -2 12 -5
15 -7 7z"/>
<path d="M969 1278 c-5 -18 -6 -38 -1 -34 7 8 12 36 6 36 -2 0 -4 -1 -5 -2z"/>
<path d="M242 1256 c-43 -21 -38 -96 7 -111 12 -3 24 -17 27 -31 3 -13 10 -22
14 -19 5 3 10 -5 12 -17 3 -22 58 -47 58 -26 0 6 11 8 25 5 19 -3 31 2 45 21
24 29 26 62 5 62 -9 0 -15 -9 -15 -24 0 -23 -16 -36 -45 -36 -7 0 -18 14 -24
30 -9 28 -8 32 15 40 14 6 30 8 35 4 5 -3 16 1 24 10 13 13 12 17 -14 35 -16
12 -41 21 -55 21 -16 0 -26 6 -26 15 0 16 -31 36 -52 34 -7 -1 -23 -7 -36 -13z
m39 -51 c-1 -15 -24 -12 -29 3 -3 9 2 13 12 10 10 -1 17 -7 17 -13z"/>
<path d="M537 1231 c6 -24 -13 -36 -33 -20 -19 16 -28 6 -21 -23 9 -33 37 -66
43 -50 3 6 11 12 18 12 17 0 46 33 46 52 0 17 -31 48 -47 48 -6 0 -9 -8 -6
-19z"/>
<path d="M980 1200 c0 -5 5 -10 10 -10 6 0 10 5 10 10 0 6 -4 10 -10 10 -5 0
-10 -4 -10 -10z"/>
<path d="M1265 1170 c3 -5 8 -10 11 -10 2 0 4 5 4 10 0 6 -5 10 -11 10 -5 0
-7 -4 -4 -10z"/>
<path d="M1062 1146 c7 -8 15 -12 17 -11 5 6 -10 25 -20 25 -5 0 -4 -6 3 -14z"/>
<path d="M764 1139 c-9 -16 18 -30 33 -17 7 6 10 14 7 19 -7 13 -31 11 -40 -2z
m36 -3 c0 -3 -4 -8 -10 -11 -5 -3 -10 -1 -10 4 0 6 5 11 10 11 6 0 10 -2 10
-4z"/>
<path d="M970 1130 c0 -5 5 -10 10 -10 6 0 10 5 10 10 0 6 -4 10 -10 10 -5 0
-10 -4 -10 -10z"/>
<path d="M587 1100 c-19 -16 -54 -55 -77 -85 -46 -59 -53 -63 -77 -40 -14 14
-18 14 -47 -3 -39 -23 -46 -59 -16 -82 21 -15 21 -16 2 -33 -31 -29 -145 -22
-150 9 -10 50 -72 79 -127 58 -35 -14 -61 -104 -30 -104 8 0 15 5 15 10 0 6 5
10 11 10 5 0 9 -8 8 -17 -5 -52 0 -63 32 -63 17 0 39 5 50 11 16 8 25 7 38 -5
25 -23 51 -20 51 5 0 16 4 19 18 14 40 -18 73 -17 107 3 19 12 37 17 40 11 8
-12 82 -12 90 1 4 6 12 4 21 -5 20 -20 37 -19 58 4 17 18 18 18 58 -3 30 -15
42 -18 45 -8 3 6 13 12 24 12 10 0 19 4 19 8 0 5 19 8 42 8 34 -1 44 3 54 22
20 39 26 38 22 -4 l-3 -42 35 5 c19 3 46 12 58 20 21 13 26 13 42 -2 14 -13
28 -16 54 -11 28 5 34 4 32 -11 -1 -21 -66 -55 -80 -42 -15 14 -23 11 -52 -16
l-27 -25 -11 22 c-13 27 -41 35 -61 18 -26 -22 -18 -50 20 -66 40 -16 42 -24
16 -80 -27 -60 -43 -63 -18 -4 19 46 20 51 5 66 -22 23 -43 12 -66 -32 l-19
-36 0 32 c0 40 -13 48 -80 48 -38 0 -56 -5 -62 -17 -9 -14 -11 -14 -28 1 -19
17 -101 26 -138 14 -11 -3 -26 -2 -34 3 -11 7 -10 14 5 41 19 31 19 32 0 46
-11 8 -23 14 -28 14 -17 0 -59 -58 -84 -117 -15 -35 -30 -63 -33 -63 -4 0 -6
-25 -6 -55 0 -30 -3 -55 -7 -55 -5 0 -8 6 -8 14 0 8 -7 16 -15 20 -8 3 -15 13
-15 21 0 9 -5 13 -10 10 -12 -8 -13 -55 -1 -74 7 -11 11 -10 20 5 6 11 11 13
11 7 0 -7 7 -13 15 -13 9 0 20 -11 26 -24 14 -30 34 -25 87 23 l41 38 21 -29
c25 -34 66 -37 103 -8 25 20 25 20 30 0 9 -34 36 -23 54 23 l18 42 5 -34 c7
-47 32 -61 70 -39 25 14 31 14 41 2 14 -17 41 -18 57 -2 10 10 17 10 32 0 27
-16 50 -15 72 5 17 15 19 15 39 -2 17 -16 25 -17 49 -8 18 7 32 7 36 2 17 -28
61 3 114 79 21 31 21 35 7 50 -15 14 -18 14 -38 -4 l-21 -19 18 37 c23 49 9
68 -53 68 l-44 0 28 24 c25 22 29 22 40 7 7 -9 13 -11 13 -5 0 6 -6 17 -13 23
-16 13 -10 70 7 72 58 8 86 4 86 -13 0 -10 5 -18 10 -18 16 0 26 33 12 38 -7
2 -19 11 -27 19 -13 12 -18 13 -31 3 -8 -8 -3 9 12 38 29 56 27 87 -6 77 -18
-6 -19 -4 -11 18 13 32 -8 62 -36 55 -12 -3 -27 -2 -34 3 -10 6 -11 9 -1 9 18
0 15 27 -4 34 -24 9 -62 7 -69 -4 -3 -5 3 -10 13 -10 29 0 34 -26 9 -37 -29
-13 -47 -6 -40 14 4 10 2 14 -4 10 -6 -4 -13 -1 -16 5 -3 7 -3 -12 -2 -42 2
-30 1 -45 -1 -34 -3 12 -14 30 -25 40 -17 15 -25 16 -51 6 -23 -8 -35 -9 -45
-1 -7 6 -24 8 -39 5 -14 -4 -23 -3 -20 2 3 5 -8 6 -25 4 -29 -4 -29 -4 -17 23
11 25 13 25 25 9 7 -10 13 -14 13 -10 0 15 -53 76 -66 76 -7 0 -20 -10 -28
-21 l-15 -21 -26 26 c-33 33 -47 33 -88 -4z m66 -6 c3 -3 -8 -35 -24 -72 -16
-36 -28 -73 -27 -81 2 -9 -2 -20 -9 -26 -16 -13 -29 -95 -15 -95 19 0 69 80
107 171 33 80 56 111 70 97 3 -2 -15 -49 -39 -104 -48 -108 -62 -154 -47 -154
15 0 66 79 80 122 7 21 16 40 21 43 15 9 21 -14 9 -37 -8 -17 -3 -14 19 10 17
17 37 32 45 32 21 0 40 -27 31 -42 -5 -7 7 0 25 15 68 56 90 15 41 -77 -17
-32 -29 -60 -27 -63 11 -10 54 28 77 68 48 82 105 122 125 89 5 -8 11 -7 20 0
31 26 32 -3 4 -65 -16 -35 -29 -71 -29 -79 0 -25 24 -8 50 34 14 22 29 40 34
40 10 0 -17 -44 -47 -77 -26 -30 -41 -29 -55 2 -9 20 -8 33 8 71 21 47 19 64
-6 64 -19 0 -74 -87 -74 -116 0 -32 18 -39 42 -17 15 12 20 14 16 4 -13 -43
-70 -37 -76 8 -3 21 -4 21 -38 -9 -69 -60 -92 -28 -46 66 17 35 27 66 23 69
-12 7 -88 -80 -109 -122 -9 -18 -19 -33 -24 -33 -11 0 -11 -3 16 76 40 113 -8
90 -74 -36 -23 -43 -29 -50 -30 -31 l0 24 -23 -21 c-29 -27 -44 -28 -52 -2 -6
19 -8 18 -36 -10 -17 -16 -34 -30 -39 -30 -12 0 -20 29 -15 56 3 13 7 36 11
50 5 26 4 27 -38 21 -31 -4 -47 -13 -62 -34 -46 -65 -94 -105 -123 -101 -36 4
-36 22 0 26 16 2 45 21 70 45 l42 42 -42 3 c-29 2 -43 8 -43 18 0 10 14 14 54
14 52 0 56 2 87 43 75 97 120 133 142 111z m13 -90 c-3 -9 -6 -18 -6 -20 0 -3
-4 -3 -10 1 -11 7 -2 35 12 35 6 0 7 -7 4 -16z m-20 -50 c-3 -9 -6 -21 -6 -27
0 -7 -5 -4 -11 6 -11 18 -5 37 13 37 5 0 7 -7 4 -16z m424 -54 c-21 -41 -35
-54 -23 -22 8 21 34 62 39 62 3 0 -5 -18 -16 -40z m-275 -23 c-8 -29 -35 -58
-35 -37 0 14 32 71 37 66 2 -2 1 -15 -2 -29z m-259 -4 c-10 -10 -19 5 -10 18
6 11 8 11 12 0 2 -7 1 -15 -2 -18z m78 12 c-4 -8 -10 -15 -15 -15 -4 0 -6 7
-3 15 4 8 10 15 15 15 4 0 6 -7 3 -15z m-404 -76 c0 -5 -7 -9 -15 -9 -15 0
-20 12 -9 23 8 8 24 -1 24 -14z m197 -135 c-42 -84 -62 -147 -53 -170 6 -16 8
-16 26 1 11 10 29 37 41 62 17 35 19 46 8 59 -9 12 -10 17 0 27 9 9 16 7 29
-10 l17 -22 44 19 c52 24 74 25 91 5 16 -19 29 -19 51 1 24 22 43 10 28 -19
-10 -19 -7 -18 18 6 64 60 88 21 42 -71 -17 -35 -29 -66 -26 -68 11 -12 76 60
96 105 21 49 37 68 48 57 3 -3 -8 -38 -25 -78 -17 -40 -28 -76 -25 -81 10 -16
65 48 99 116 26 51 31 67 19 67 -8 0 -15 5 -15 10 0 6 7 10 16 10 9 0 24 10
34 23 17 20 19 21 25 4 7 -17 9 -16 43 3 20 12 39 17 44 12 12 -12 -13 -31
-59 -47 -34 -10 -43 -21 -81 -98 -66 -131 -33 -146 43 -21 46 75 80 98 115 76
12 -7 20 -8 20 -2 0 5 7 10 15 10 20 0 19 -9 -11 -74 -14 -31 -24 -66 -22 -78
3 -20 7 -18 38 24 18 26 36 46 38 43 3 -2 -8 -21 -24 -42 -44 -59 -60 -66 -72
-32 l-8 20 -18 -20 c-25 -28 -42 -26 -62 4 l-17 26 -28 -27 c-31 -30 -59 -27
-59 7 0 20 -1 20 -31 -5 -17 -14 -35 -26 -39 -26 -13 0 -31 36 -22 45 4 5 -10
-4 -30 -19 -68 -50 -88 -14 -42 75 14 28 23 56 21 62 -5 17 -61 -47 -96 -112
-34 -62 -39 -52 -15 28 8 29 13 55 10 58 -10 10 -24 -7 -29 -36 -9 -46 -65
-103 -96 -99 -36 4 -56 48 -42 90 6 17 8 34 5 37 -4 3 -9 1 -11 -6 -11 -32
-66 -101 -89 -113 -24 -13 -28 -13 -46 9 -22 28 -18 56 18 140 36 81 65 124
76 113 6 -6 -3 -35 -25 -78z m489 55 c10 -17 -13 -36 -27 -22 -12 12 -4 33 11
33 5 0 12 -5 16 -11z m-376 -54 c0 -2 -10 -9 -22 -15 -22 -11 -22 -10 -4 4 21
17 26 19 26 11z m464 -62 c-19 -31 -34 -61 -34 -67 0 -5 -2 -7 -5 -4 -3 3 5
27 17 54 29 62 37 74 48 74 5 0 -7 -26 -26 -57z m-575 -24 c-13 -26 -23 -18
-14 10 3 12 11 19 16 16 5 -4 5 -14 -2 -26z"/>
<path d="M573 1043 c-16 -21 -39 -53 -52 -70 l-22 -33 38 0 38 0 21 70 c12 39
18 70 14 70 -5 0 -21 -17 -37 -37z m-17 -71 c-18 -16 -18 -16 -6 6 6 13 14 21
18 18 3 -4 -2 -14 -12 -24z"/>
<path d="M580 641 c0 -5 5 -13 10 -16 6 -3 10 -2 10 4 0 5 -4 13 -10 16 -5 3
-10 2 -10 -4z"/>
<path d="M1068 638 c-28 -22 -58 -82 -58 -115 0 -41 11 -42 44 -3 48 58 60
153 14 118z m-8 -68 c-12 -23 -24 -40 -26 -37 -3 3 4 24 16 47 12 23 24 40 26
37 3 -3 -4 -24 -16 -47z"/>
<path d="M535 606 c-14 -19 -28 -50 -32 -69 -11 -68 41 -56 76 18 21 45 21 45
1 65 -19 19 -20 19 -45 -14z m22 -51 c-9 -19 -21 -35 -27 -35 -14 0 -13 14 7
55 11 23 20 32 27 25 6 -6 4 -21 -7 -45z"/>
<path d="M860 1120 c-8 -5 -24 -7 -35 -4 -18 4 -18 4 -3 -6 10 -6 23 -21 28
-33 11 -21 11 -21 -4 -3 -9 11 -16 16 -16 11 0 -5 -5 -4 -12 3 -7 7 -16 12
-21 12 -5 0 -2 -7 7 -15 8 -9 17 -14 20 -13 2 2 14 -6 27 -17 13 -11 21 -16
17 -12 -3 5 2 17 13 28 24 24 24 39 2 40 -15 0 -15 2 2 9 13 6 15 9 5 9 -8 0
-22 -4 -30 -9z"/>
<path d="M1113 1115 c1 -11 10 -21 20 -23 12 -2 15 1 11 12 -3 9 -10 14 -14
11 -5 -3 -11 1 -14 7 -3 7 -5 4 -3 -7z"/>
<path d="M1360 1112 c0 -5 7 -9 15 -9 8 0 12 4 9 9 -3 4 -9 8 -15 8 -5 0 -9
-4 -9 -8z"/>
<path d="M496 1103 c-11 -11 -6 -23 9 -23 8 0 15 4 15 9 0 13 -16 22 -24 14z"/>
<path d="M118 1077 c-31 -24 -33 -63 -4 -91 27 -28 46 -32 78 -15 16 8 22 8
29 -2 10 -16 59 -22 59 -8 0 6 7 17 15 25 21 22 19 33 -11 46 -23 11 -28 9
-43 -10 -19 -26 -33 -19 -25 13 3 12 -1 26 -9 33 -22 19 -70 24 -89 9z"/>
<path d="M901 1076 c-14 -16 -7 -36 12 -36 7 0 6 4 -3 10 -13 9 -13 11 0 19 8
6 12 13 9 16 -4 3 -12 -1 -18 -9z"/>
<path d="M1260 1050 c0 -5 5 -10 10 -10 6 0 10 5 10 10 0 6 -4 10 -10 10 -5 0
-10 -4 -10 -10z"/>
<path d="M935 790 c-3 -5 -1 -10 4 -10 6 0 11 5 11 10 0 6 -2 10 -4 10 -3 0
-8 -4 -11 -10z"/>
<path d="M760 775 c-10 -12 -10 -19 -2 -27 17 -17 41 -2 35 21 -6 25 -16 26
-33 6z"/>
<path d="M564 749 c0 -10 4 -19 8 -19 4 0 8 6 8 14 0 8 -4 17 -8 20 -4 2 -8
-4 -8 -15z"/>
<path d="M1404 760 c-50 -20 -38 -34 26 -32 16 0 18 -1 8 -5 -10 -2 -18 -9
-18 -14 0 -6 3 -8 8 -6 4 3 8 -6 9 -21 1 -28 -17 -52 -42 -52 -9 0 -13 -5 -10
-10 4 -7 13 -7 26 0 15 9 21 7 26 -5 3 -11 13 -15 26 -11 17 4 19 1 14 -32 -4
-19 -19 -65 -33 -101 -71 -172 -203 -312 -368 -391 -56 -26 -126 -53 -156 -59
-30 -6 -64 -13 -75 -15 -11 -2 132 -4 318 -5 l337 -1 0 373 0 374 -25 11 c-30
14 -42 14 -71 2z m59 -17 c-7 -2 -19 -2 -25 0 -7 3 -2 5 12 5 14 0 19 -2 13
-5z m27 -18 c0 -8 -7 -15 -15 -15 -13 0 -14 3 -3 15 16 18 18 18 18 0z m-33
-57 c-3 -7 -5 -2 -5 12 0 14 2 19 5 13 2 -7 2 -19 0 -25z m30 0 c-3 -7 -5 -2
-5 12 0 14 2 19 5 13 2 -7 2 -19 0 -25z m-27 -33 c0 -8 -4 -15 -10 -15 -5 0
-7 7 -4 15 4 8 8 15 10 15 2 0 4 -7 4 -15z"/>
<path d="M655 750 c4 -6 11 -8 16 -5 14 9 11 15 -7 15 -8 0 -12 -5 -9 -10z"/>
<path d="M1 348 l-1 -348 338 1 c204 1 318 4 290 9 -73 13 -145 38 -233 84
-112 57 -244 189 -301 301 -44 85 -72 167 -84 250 -4 29 -8 -99 -9 -297z"/>
<path d="M1223 530 c-24 -10 -47 -45 -38 -60 3 -5 1 -11 -4 -14 -15 -10 -1
-45 27 -66 26 -21 72 -27 72 -9 0 5 4 8 8 5 5 -3 19 4 30 15 34 31 29 81 -9
113 -32 27 -50 31 -86 16z m44 -6 c-3 -3 -12 -4 -19 -1 -8 3 -5 6 6 6 11 1 17
-2 13 -5z m47 -46 c-4 -15 -3 -18 6 -13 15 9 4 -30 -16 -60 -12 -17 -14 -17
-14 -2 0 9 5 17 10 17 6 0 10 5 10 11 0 5 -5 7 -10 4 -6 -3 -17 0 -25 9 -13
13 -13 16 1 30 8 9 20 14 25 11 5 -4 9 -2 9 3 0 16 -25 20 -43 7 -9 -7 -17
-19 -17 -28 0 -16 -24 -30 -34 -20 -13 14 -5 43 12 43 10 0 27 6 37 14 27 20
59 3 49 -26z m-87 26 c-3 -3 -12 -4 -19 -1 -8 3 -5 6 6 6 11 1 17 -2 13 -5z
m33 -74 c-8 -5 -22 -10 -30 -10 -13 0 -13 1 0 10 8 5 22 10 30 10 13 0 13 -1
0 -10z m-5 -48 c-8 -8 -25 10 -19 20 4 6 9 5 15 -3 4 -7 6 -15 4 -17z"/>
<path d="M610 315 c0 -50 2 -55 23 -55 35 0 49 15 49 53 0 47 -7 57 -43 57
-29 0 -29 -1 -29 -55z m48 33 c16 -16 15 -53 -3 -68 -21 -17 -34 -4 -33 33 1
48 12 59 36 35z"/>
<path d="M704 326 c-11 -29 0 -61 24 -64 15 -2 22 2 22 14 0 13 -3 14 -13 5
-8 -6 -17 -8 -20 -4 -13 12 -7 23 14 23 14 0 19 5 17 17 -4 23 -36 29 -44 9z
m36 -6 c0 -5 -7 -10 -16 -10 -8 0 -12 5 -9 10 3 6 10 10 16 10 5 0 9 -4 9 -10z"/>
<path d="M774 326 c-11 -29 1 -61 24 -64 15 -2 22 2 22 14 0 13 -3 14 -13 5
-16 -13 -27 -5 -27 20 0 24 20 35 31 18 7 -11 9 -10 9 4 0 21 -38 24 -46 3z"/>
<path d="M842 323 c-12 -22 2 -63 21 -63 23 0 40 28 33 55 -7 29 -41 34 -54 8z
m38 -24 c0 -38 -24 -35 -28 4 -2 19 1 27 12 27 11 0 16 -10 16 -31z"/>
<path d="M292 313 c-10 -4 -10 -8 -1 -19 7 -8 9 -17 5 -21 -3 -3 -6 -1 -6 5 0
18 -27 14 -34 -4 -10 -26 -7 -56 5 -48 8 4 9 -1 4 -17 -5 -19 -4 -21 4 -9 6 8
11 22 11 31 0 18 39 32 63 23 40 -15 16 -91 -25 -81 -10 3 -16 1 -12 -4 9 -15
54 -11 54 5 0 8 7 17 16 20 14 5 15 4 4 -9 -11 -13 -10 -14 4 -9 22 8 36 36
36 69 0 22 -3 25 -20 20 -13 -4 -22 -1 -26 9 -5 12 -10 13 -25 5 -14 -7 -19
-6 -19 4 0 19 -22 36 -38 30z m118 -83 c0 -11 -6 -20 -14 -20 -18 0 -29 16
-21 30 11 18 35 11 35 -10z"/>
<path d="M520 300 c0 -5 4 -10 9 -10 6 0 13 5 16 10 3 6 -1 10 -9 10 -9 0 -16
-4 -16 -10z"/>
<path d="M960 300 c0 -5 4 -10 9 -10 6 0 13 5 16 10 3 6 -1 10 -9 10 -9 0 -16
-4 -16 -10z"/>
</g>
</svg>
